<svg width="70" height="32" viewBox="0 0 70 32" fill="none" xmlns="http://www.w3.org/2000/svg">
<path d="M5.384 12.24C4.54133 12.24 3.78133 12.0933 3.104 11.8C2.432 11.5067 1.87733 11.088 1.44 10.544C1.008 9.99466 0.733331 9.344 0.615997 8.592L2.616 8.288C2.78666 8.97066 3.136 9.49866 3.664 9.872C4.19733 10.2453 4.81066 10.432 5.504 10.432C5.91466 10.432 6.30133 10.368 6.664 10.24C7.02666 10.112 7.32 9.92533 7.544 9.68C7.77333 9.43466 7.888 9.13333 7.888 8.776C7.888 8.616 7.86133 8.46933 7.808 8.336C7.75466 8.19733 7.67466 8.07466 7.568 7.968C7.46666 7.86133 7.33333 7.76533 7.168 7.68C7.008 7.58933 6.82133 7.512 6.608 7.448L3.632 6.568C3.376 6.49333 3.09866 6.39466 2.8 6.272C2.50666 6.144 2.22666 5.97066 1.96 5.752C1.69866 5.528 1.48266 5.24533 1.312 4.904C1.14666 4.55733 1.064 4.13066 1.064 3.624C1.064 2.88266 1.25066 2.26133 1.624 1.76C2.00266 1.25333 2.50933 0.874662 3.144 0.623996C3.784 0.373329 4.49333 0.250662 5.272 0.255996C6.06133 0.261328 6.76533 0.397328 7.384 0.663996C8.00266 0.925329 8.52 1.30666 8.936 1.808C9.352 2.30933 9.64533 2.91466 9.816 3.624L7.744 3.984C7.65866 3.57866 7.49333 3.23466 7.248 2.952C7.008 2.664 6.712 2.44533 6.36 2.296C6.01333 2.14666 5.64266 2.06666 5.248 2.056C4.864 2.05066 4.50666 2.10933 4.176 2.232C3.85066 2.34933 3.58666 2.52 3.384 2.744C3.18666 2.968 3.088 3.22933 3.088 3.528C3.088 3.81066 3.17333 4.04266 3.344 4.22399C3.51466 4.39999 3.72533 4.54133 3.976 4.648C4.232 4.74933 4.49066 4.83466 4.752 4.904L6.816 5.48C7.09866 5.55466 7.416 5.656 7.768 5.784C8.12 5.912 8.45866 6.09066 8.784 6.32C9.10933 6.54933 9.376 6.85066 9.584 7.224C9.79733 7.59733 9.904 8.072 9.904 8.648C9.904 9.24533 9.77866 9.77066 9.528 10.224C9.28266 10.672 8.94933 11.0453 8.528 11.344C8.10666 11.6427 7.624 11.8667 7.08 12.016C6.54133 12.1653 5.976 12.24 5.384 12.24Z" fill="#111111"/>
<path d="M16.2756 12.24C15.3583 12.24 14.5503 12.0533 13.8516 11.68C13.1583 11.3067 12.6143 10.7813 12.2196 10.104C11.8303 9.42666 11.6356 8.632 11.6356 7.72V0.495995L13.5876 0.479996V7.672C13.5876 8.104 13.6596 8.49066 13.8036 8.832C13.953 9.17333 14.153 9.464 14.4036 9.704C14.6543 9.93866 14.9423 10.1173 15.2676 10.24C15.593 10.3627 15.929 10.424 16.2756 10.424C16.633 10.424 16.9716 10.3627 17.2916 10.24C17.617 10.112 17.905 9.93066 18.1556 9.696C18.4063 9.456 18.6036 9.16533 18.7476 8.824C18.8916 8.48266 18.9636 8.09866 18.9636 7.672V0.479996H20.9156V7.72C20.9156 8.632 20.7183 9.42666 20.3236 10.104C19.9343 10.7813 19.3903 11.3067 18.6916 11.68C17.9983 12.0533 17.193 12.24 16.2756 12.24Z" fill="#111111"/>
<path d="M23.1512 12V0.479996H27.9112C28.0232 0.479996 28.1672 0.485329 28.3432 0.495995C28.5192 0.501329 28.6819 0.517329 28.8312 0.543996C29.4979 0.645329 30.0472 0.866662 30.4792 1.208C30.9166 1.54933 31.2392 1.98133 31.4472 2.504C31.6606 3.02133 31.7672 3.59733 31.7672 4.232C31.7672 4.86133 31.6606 5.43733 31.4472 5.96C31.2339 6.47733 30.9086 6.90666 30.4712 7.248C30.0392 7.58933 29.4926 7.81066 28.8312 7.912C28.6819 7.93333 28.5166 7.94933 28.3352 7.96C28.1592 7.97066 28.0179 7.976 27.9112 7.976H25.0792V12H23.1512ZM25.0792 6.176H27.8312C27.9379 6.176 28.0579 6.17066 28.1912 6.16C28.3246 6.14933 28.4472 6.128 28.5592 6.096C28.8792 6.016 29.1299 5.87466 29.3112 5.672C29.4979 5.46933 29.6286 5.24 29.7032 4.984C29.7832 4.728 29.8232 4.47733 29.8232 4.232C29.8232 3.98666 29.7832 3.736 29.7032 3.48C29.6286 3.21866 29.4979 2.98666 29.3112 2.784C29.1299 2.58133 28.8792 2.44 28.5592 2.36C28.4472 2.328 28.3246 2.30933 28.1912 2.304C28.0579 2.29333 27.9379 2.288 27.8312 2.288H25.0792V6.176Z" fill="#111111"/>
<path d="M33.37 12V0.479996H40.81V2.288H35.298V5.128H39.85V6.936H35.298V10.192H40.81V12H33.37Z" fill="#111111"/>
<path d="M42.7294 12V0.479996H47.4894C47.6014 0.479996 47.7454 0.485329 47.9214 0.495995C48.0974 0.501329 48.26 0.517329 48.4094 0.543996C49.076 0.645329 49.6254 0.866662 50.0574 1.208C50.4947 1.54933 50.8174 1.98133 51.0254 2.504C51.2387 3.02133 51.3454 3.59733 51.3454 4.232C51.3454 5.17066 51.108 5.97866 50.6334 6.656C50.1587 7.328 49.4307 7.744 48.4494 7.904L47.6254 7.976H44.6574V12H42.7294ZM49.3454 12L47.0734 7.312L49.0334 6.88L51.5294 12H49.3454ZM44.6574 6.176H47.4094C47.516 6.176 47.636 6.17066 47.7694 6.16C47.9027 6.14933 48.0254 6.128 48.1374 6.096C48.4574 6.016 48.708 5.87466 48.8894 5.672C49.076 5.46933 49.2067 5.24 49.2814 4.984C49.3614 4.728 49.4014 4.47733 49.4014 4.232C49.4014 3.98666 49.3614 3.736 49.2814 3.48C49.2067 3.21866 49.076 2.98666 48.8894 2.784C48.708 2.58133 48.4574 2.44 48.1374 2.36C48.0254 2.328 47.9027 2.30933 47.7694 2.304C47.636 2.29333 47.516 2.288 47.4094 2.288H44.6574V6.176Z" fill="#111111"/>
<path d="M1.12 31V19.48H2.856L6.84 27.64L10.824 19.48H12.56V31H10.76V23.616L7.224 31H6.456L2.928 23.616V31H1.12Z" fill="#111111"/>
<path d="M19.6795 31.24C18.5275 31.24 17.5408 30.9893 16.7195 30.488C15.8982 29.9813 15.2662 29.2773 14.8235 28.376C14.3862 27.4747 14.1675 26.4293 14.1675 25.24C14.1675 24.0507 14.3862 23.0053 14.8235 22.104C15.2662 21.2027 15.8982 20.5013 16.7195 20C17.5408 19.4933 18.5275 19.24 19.6795 19.24C20.8315 19.24 21.8182 19.4933 22.6395 20C23.4662 20.5013 24.0982 21.2027 24.5355 22.104C24.9782 23.0053 25.1995 24.0507 25.1995 25.24C25.1995 26.4293 24.9782 27.4747 24.5355 28.376C24.0982 29.2773 23.4662 29.9813 22.6395 30.488C21.8182 30.9893 20.8315 31.24 19.6795 31.24ZM19.6795 29.424C20.4528 29.4293 21.0955 29.2587 21.6075 28.912C22.1248 28.5653 22.5115 28.0773 22.7675 27.448C23.0288 26.8187 23.1595 26.0827 23.1595 25.24C23.1595 24.3973 23.0288 23.6667 22.7675 23.048C22.5115 22.424 22.1248 21.9387 21.6075 21.592C21.0955 21.2453 20.4528 21.0667 19.6795 21.056C18.9062 21.0507 18.2635 21.2213 17.7515 21.568C17.2395 21.9147 16.8528 22.4027 16.5915 23.032C16.3355 23.6613 16.2075 24.3973 16.2075 25.24C16.2075 26.0827 16.3355 26.816 16.5915 27.44C16.8475 28.0587 17.2315 28.5413 17.7435 28.888C18.2608 29.2347 18.9062 29.4133 19.6795 29.424Z" fill="#111111"/>
<path d="M31.6639 31.24C30.5119 31.24 29.5252 30.9893 28.7039 30.488C27.8825 29.9813 27.2505 29.2773 26.8079 28.376C26.3705 27.4747 26.1519 26.4293 26.1519 25.24C26.1519 24.0507 26.3705 23.0053 26.8079 22.104C27.2505 21.2027 27.8825 20.5013 28.7039 20C29.5252 19.4933 30.5119 19.24 31.6639 19.24C32.9919 19.24 34.0985 19.5733 34.9839 20.24C35.8692 20.9013 36.4905 21.7947 36.8479 22.92L34.9039 23.456C34.6799 22.704 34.2985 22.1173 33.7599 21.696C33.2212 21.2693 32.5225 21.056 31.6639 21.056C30.8905 21.056 30.2452 21.2293 29.7279 21.576C29.2159 21.9227 28.8292 22.4107 28.5679 23.04C28.3119 23.664 28.1812 24.3973 28.1759 25.24C28.1759 26.0827 28.3039 26.8187 28.5599 27.448C28.8212 28.072 29.2105 28.5573 29.7279 28.904C30.2452 29.2507 30.8905 29.424 31.6639 29.424C32.5225 29.424 33.2212 29.2107 33.7599 28.784C34.2985 28.3573 34.6799 27.7707 34.9039 27.024L36.8479 27.56C36.4905 28.6853 35.8692 29.5813 34.9839 30.248C34.0985 30.9093 32.9919 31.24 31.6639 31.24Z" fill="#111111"/>
<path d="M38.6044 31V19.48H40.5324V24.824L45.1324 19.48H47.5004L42.5484 25.128L47.8364 31H45.3884L40.5324 25.624V31H38.6044Z" fill="#111111"/>
<path d="M53.6037 31.24C52.6864 31.24 51.8784 31.0533 51.1797 30.68C50.4864 30.3067 49.9424 29.7813 49.5477 29.104C49.1584 28.4267 48.9637 27.632 48.9637 26.72V19.496L50.9157 19.48V26.672C50.9157 27.104 50.9877 27.4907 51.1317 27.832C51.2811 28.1733 51.4811 28.464 51.7317 28.704C51.9824 28.9387 52.2704 29.1173 52.5957 29.24C52.9211 29.3627 53.2571 29.424 53.6037 29.424C53.9611 29.424 54.2997 29.3627 54.6197 29.24C54.9451 29.112 55.2331 28.9307 55.4837 28.696C55.7344 28.456 55.9317 28.1653 56.0757 27.824C56.2197 27.4827 56.2917 27.0987 56.2917 26.672V19.48H58.2437V26.72C58.2437 27.632 58.0464 28.4267 57.6517 29.104C57.2624 29.7813 56.7184 30.3067 56.0197 30.68C55.3264 31.0533 54.5211 31.24 53.6037 31.24Z" fill="#111111"/>
<path d="M60.4794 31V19.48H65.2394C65.3514 19.48 65.4954 19.4853 65.6714 19.496C65.8474 19.5013 66.01 19.5173 66.1594 19.544C66.826 19.6453 67.3754 19.8667 67.8074 20.208C68.2447 20.5493 68.5674 20.9813 68.7754 21.504C68.9887 22.0213 69.0954 22.5973 69.0954 23.232C69.0954 23.8613 68.9887 24.4373 68.7754 24.96C68.562 25.4773 68.2367 25.9067 67.7994 26.248C67.3674 26.5893 66.8207 26.8107 66.1594 26.912C66.01 26.9333 65.8447 26.9493 65.6634 26.96C65.4874 26.9707 65.346 26.976 65.2394 26.976H62.4074V31H60.4794ZM62.4074 25.176H65.1594C65.266 25.176 65.386 25.1707 65.5194 25.16C65.6527 25.1493 65.7754 25.128 65.8874 25.096C66.2074 25.016 66.458 24.8747 66.6394 24.672C66.826 24.4693 66.9567 24.24 67.0314 23.984C67.1114 23.728 67.1514 23.4773 67.1514 23.232C67.1514 22.9867 67.1114 22.736 67.0314 22.48C66.9567 22.2187 66.826 21.9867 66.6394 21.784C66.458 21.5813 66.2074 21.44 65.8874 21.36C65.7754 21.328 65.6527 21.3093 65.5194 21.304C65.386 21.2933 65.266 21.288 65.1594 21.288H62.4074V25.176Z" fill="#111111"/>
</svg>
