<svg width="24" height="24" viewBox="0 0 24 24" fill="none" xmlns="http://www.w3.org/2000/svg">
<path d="M21.6305 16.4508H7.67345L8.37423 15.0234L20.018 15.0023C20.4117 15.0023 20.7492 14.7211 20.8195 14.332L22.432 5.30625C22.4742 5.06953 22.4109 4.82578 22.2563 4.64062C22.1798 4.5495 22.0844 4.4761 21.9768 4.42551C21.8691 4.37492 21.7518 4.34835 21.6328 4.34766L6.82032 4.29844L6.69376 3.70312C6.61407 3.32344 6.27189 3.04688 5.88282 3.04688H2.26173C2.04231 3.04688 1.83187 3.13404 1.67671 3.2892C1.52155 3.44436 1.43439 3.65479 1.43439 3.87422C1.43439 4.09364 1.52155 4.30408 1.67671 4.45924C1.83187 4.6144 2.04231 4.70156 2.26173 4.70156H5.21251L5.76564 7.33125L7.12736 13.9242L5.37423 16.7859C5.28319 16.9088 5.22835 17.0547 5.21593 17.2071C5.2035 17.3596 5.23398 17.5124 5.30392 17.6484C5.44454 17.9273 5.72814 18.1031 6.0422 18.1031H7.51407C7.20029 18.5199 7.0308 19.0275 7.03126 19.5492C7.03126 20.8758 8.10939 21.9539 9.43595 21.9539C10.7625 21.9539 11.8406 20.8758 11.8406 19.5492C11.8406 19.0266 11.6672 18.518 11.3578 18.1031H15.1336C14.8198 18.5199 14.6503 19.0275 14.6508 19.5492C14.6508 20.8758 15.7289 21.9539 17.0555 21.9539C18.382 21.9539 19.4602 20.8758 19.4602 19.5492C19.4602 19.0266 19.2867 18.518 18.9774 18.1031H21.6328C22.0875 18.1031 22.4602 17.7328 22.4602 17.2758C22.4588 17.0566 22.3708 16.8468 22.2154 16.6923C22.0599 16.5377 21.8497 16.4509 21.6305 16.4508ZM7.16486 5.92969L20.6602 5.97422L19.3383 13.3758L8.73751 13.3945L7.16486 5.92969ZM9.43595 20.2898C9.02814 20.2898 8.69532 19.957 8.69532 19.5492C8.69532 19.1414 9.02814 18.8086 9.43595 18.8086C9.84376 18.8086 10.1766 19.1414 10.1766 19.5492C10.1766 19.7456 10.0985 19.934 9.95965 20.0729C9.82076 20.2118 9.63237 20.2898 9.43595 20.2898ZM17.0555 20.2898C16.6477 20.2898 16.3149 19.957 16.3149 19.5492C16.3149 19.1414 16.6477 18.8086 17.0555 18.8086C17.4633 18.8086 17.7961 19.1414 17.7961 19.5492C17.7961 19.7456 17.7181 19.934 17.5792 20.0729C17.4403 20.2118 17.2519 20.2898 17.0555 20.2898Z" fill="#111111"/>
</svg>
